<svg id="Layer_1" data-name="Layer 1" xmlns="http://www.w3.org/2000/svg" viewBox="0 0 288 288"><defs><style>.cls-1{opacity:0.38;}.cls-2{fill:#fff;}</style></defs><g class="cls-1"><path class="cls-2" d="M219.64,205.55c-15.91,15.57-33.1,23.48-53.11,26-17.7,2.26-33.45-1.88-47.51-12.67-11.71-9-19.68-25.36-13.5-40.62a32.25,32.25,0,0,1,7-10.46c6.18-6.15,8.3-6.23,13.16,1,10.23,15.18,37.2,19.63,54.06,7,1.51-1.14,3.1-2.17,4.82-3.36,1,.77,1.88,1.34,2.63,2.05C197.84,184.65,208.47,194.84,219.64,205.55Z"/><path class="cls-2" d="M218.58,80.14,184.14,113.4c-9.19-7-20.11-12.21-33.32-10.12-12.88,2-22.45,8.9-29.55,19.91-8.16-2-13-7.42-15.67-14.69-6.11-16.3.51-31.65,15.06-42.41,19.61-14.52,41.41-15.14,63.51-7.36C201.82,64.94,211.1,71.46,218.58,80.14Z"/><path class="cls-2" d="M172.84,126.5a22.85,22.85,0,0,0-32.64,2.56c-2.92,3.65-6,4.51-10,4-25.46-2.56-38-24.12-28.87-48,2.68-6.82,7.43-12.3,11.82-18-26.55,13-48.35,47.74-44.33,85.86,2.92,28.38,26.67,63.7,46.28,68-2.81-3-5.36-5.48-7.68-8.28-15.22-18.64-13-50.3,18.15-58,6.21-1.59,11.08-1.34,15.83,4.26a22,22,0,0,0,32.52.73C183.32,150.13,182.71,135.51,172.84,126.5Zm-15.1,25c-4.63,0-7.55-2.92-7.79-7.67-.25-4.27,4-8.29,8.16-8.16,4.5.24,8.28,4.14,7.67,8.52C165.29,148.79,162.25,151.59,157.74,151.47Z"/></g></svg>